<svg xmlns="http://www.w3.org/2000/svg" viewBox="0 0 24 24"><title>Facebook</title><path d="M24 12c0-6.63-5.37-12-12-12S0 5.37 0 12c0 5.99 4.39 10.95 10.12 11.85v-8.39H7.08V12h3.05V9.36c0-3.01 1.79-4.67 4.53-4.67 1.31 0 2.69.23 2.69.23v2.95h-1.51c-1.49 0-1.96.93-1.96 1.87V12h3.33l-.53 3.47h-2.8v8.39C19.61 22.95 24 17.99 24 12z" fill="#1877f2"/><path d="M16.67 15.47L17.2 12h-3.33V9.75c0-.95.46-1.87 1.96-1.87h1.51V4.92s-1.37-.23-2.69-.23c-2.74 0-4.53 1.66-4.53 4.67V12H7.08v3.47h3.05v8.39c.61.09 1.23.14 1.87.14s1.26-.05 1.88-.15v-8.39h2.79v.01z" fill="#fff"/></svg>
