<?xml version="1.0" standalone="no"?>
<!DOCTYPE svg PUBLIC "-//W3C//DTD SVG 20010904//EN"
 "http://www.w3.org/TR/2001/REC-SVG-20010904/DTD/svg10.dtd">
<svg version="1.0" xmlns="http://www.w3.org/2000/svg"
 width="2048.000000pt" height="2048.000000pt" viewBox="0 0 2048.000000 2048.000000"
 preserveAspectRatio="xMidYMid meet">
<metadata>
Created by potrace 1.14, written by Peter Selinger 2001-2017
</metadata>
<g transform="translate(0.000000,2048.000000) scale(0.100000,-0.100000)"
fill="#000000" stroke="none">
<path d="M0 10240 l0 -10240 10240 0 10240 0 0 10240 0 10240 -10240 0 -10240
0 0 -10240z m13641 3784 c176 -52 301 -186 344 -366 38 -161 -8 -334 -120
-450 -67 -70 -348 -236 -705 -417 -799 -405 -1803 -713 -2720 -836 -287 -38
-741 -76 -1015 -85 -294 -9 -830 0 -1190 20 -683 39 -1906 224 -2300 347 -253
79 -365 222 -365 468 -1 242 115 410 324 470 104 30 263 17 581 -49 291 -60
597 -111 1040 -175 504 -73 782 -91 1380 -91 409 0 642 9 960 35 1173 98 2160
392 3158 939 198 109 332 176 382 192 57 18 181 17 246 -2z m891 -2145 c29 -6
95 -31 145 -55 210 -100 336 -302 336 -534 -1 -172 -60 -317 -174 -425 -209
-196 -838 -531 -1499 -798 -1030 -414 -2168 -684 -3315 -786 -433 -39 -603
-46 -1115 -45 -678 0 -1041 23 -1645 105 -604 81 -1323 239 -1634 359 -248 96
-401 312 -404 570 -1 52 5 120 12 150 32 130 115 261 215 338 70 54 202 116
280 132 90 18 170 6 491 -75 757 -192 1365 -287 2080 -325 242 -13 870 -13
1130 0 1165 57 2326 299 3365 700 378 146 942 419 1175 568 87 56 179 99 253
117 70 16 232 19 304 4z m1058 -2496 c289 -84 486 -291 544 -575 50 -243 -15
-446 -204 -638 -106 -108 -236 -195 -492 -328 -888 -463 -2050 -864 -3133
-1081 -618 -123 -1526 -239 -2215 -282 -240 -15 -1753 -15 -2025 0 -1036 57
-2533 320 -2963 521 -157 74 -276 192 -352 351 -55 116 -74 215 -67 354 16
334 226 595 541 675 59 15 112 20 207 20 127 0 130 -1 442 -80 444 -112 799
-183 1207 -239 1440 -200 3006 -182 4375 49 803 136 1324 261 1950 469 483
160 697 251 1285 546 463 232 502 250 620 269 53 9 199 -7 280 -31z"/>
</g>
</svg>
